<svg width="100" height="100" viewBox="0 0 100 100" fill="none" xmlns="http://www.w3.org/2000/svg">
<circle cx="50" cy="50" r="50" fill="#0F2147"/>
<g filter="url(#filter0_d_831_6)">
<path d="M14.3334 46.1641C13.224 46.1641 12.2605 45.9349 11.4427 45.4766C10.6302 45.013 10 44.3594 9.55212 43.5156C9.10942 42.6667 8.88806 41.6641 8.88806 40.5078V40.125C8.88806 39.0208 9.1016 38.0443 9.52869 37.1953C9.96098 36.3411 10.573 35.6719 11.3646 35.1875C12.1615 34.7031 13.112 34.4609 14.2162 34.4609C14.9818 34.4609 15.7032 34.5703 16.3802 34.7891C17.0573 35.0078 17.6615 35.3411 18.1927 35.7891V38.5391H16.4974L16.2631 36.8125C16.0026 36.6302 15.7084 36.487 15.3802 36.3828C15.0521 36.2734 14.6823 36.2188 14.2709 36.2188C13.3073 36.2188 12.5495 36.5703 11.9974 37.2734C11.4454 37.9714 11.1693 38.9167 11.1693 40.1094V40.5078C11.1693 41.7057 11.4558 42.6562 12.0287 43.3594C12.6016 44.0625 13.3829 44.4141 14.3724 44.4141C14.7006 44.4141 15.0287 44.3776 15.3568 44.3047C15.6901 44.2266 15.9922 44.1276 16.2631 44.0078L16.4974 42.4062H18.1927V45.125C17.75 45.4167 17.198 45.6641 16.5365 45.8672C15.875 46.0651 15.1407 46.1641 14.3334 46.1641ZM23.0614 46.1641C22.2228 46.1641 21.5041 45.9818 20.9051 45.6172C20.3114 45.2526 19.8556 44.7474 19.5379 44.1016C19.2202 43.4505 19.0614 42.7031 19.0614 41.8594V41.6953C19.0614 40.8568 19.2202 40.1146 19.5379 39.4688C19.8556 38.8177 20.3114 38.3099 20.9051 37.9453C21.5041 37.5755 22.2176 37.3906 23.0457 37.3906C23.8791 37.3906 24.5926 37.5729 25.1864 37.9375C25.7853 38.3021 26.2437 38.8099 26.5614 39.4609C26.8791 40.1068 27.0379 40.8516 27.0379 41.6953V41.8594C27.0379 42.7031 26.8791 43.4505 26.5614 44.1016C26.2437 44.7474 25.7879 45.2526 25.1942 45.6172C24.6004 45.9818 23.8895 46.1641 23.0614 46.1641ZM23.0614 44.4141C23.6499 44.4141 24.0796 44.1797 24.3504 43.7109C24.6265 43.2422 24.7645 42.625 24.7645 41.8594V41.6953C24.7645 40.9453 24.6265 40.3333 24.3504 39.8594C24.0744 39.3854 23.6395 39.1484 23.0457 39.1484C22.452 39.1484 22.0197 39.3854 21.7489 39.8594C21.478 40.3333 21.3426 40.9453 21.3426 41.6953V41.8594C21.3426 42.6302 21.478 43.25 21.7489 43.7188C22.0197 44.1823 22.4572 44.4141 23.0614 44.4141ZM27.7034 46V44.6328L28.7972 44.3984V39.1562L27.5862 38.9219V37.5469H30.9222L31.0237 38.7578C31.305 38.3255 31.6514 37.9896 32.0628 37.75C32.4795 37.5104 32.9534 37.3906 33.4847 37.3906C34.318 37.3906 34.9717 37.6589 35.4456 38.1953C35.9248 38.7318 36.1644 39.5729 36.1644 40.7188V44.3984L37.2581 44.6328V46H32.8987V44.6328L33.8753 44.3984V40.7266C33.8753 40.1589 33.7607 39.7578 33.5316 39.5234C33.3076 39.2839 32.9769 39.1641 32.5394 39.1641C31.904 39.1641 31.417 39.4297 31.0784 39.9609V44.3984L32.0003 44.6328V46H27.7034ZM40.3533 46L37.7986 39.0625L36.8846 38.9219V37.5469H40.9861V38.9141L40.0955 39.0703L41.3689 42.9062L41.5642 43.5625H41.6111L41.8299 42.9062L43.2283 39.0781L42.1892 38.9141V37.5469H46.283V38.9219L45.3455 39.0781L42.6736 46H40.3533ZM50.5735 46.1641C49.761 46.1641 49.0527 45.987 48.4485 45.6328C47.8495 45.2734 47.3834 44.7812 47.0501 44.1562C46.7219 43.5312 46.5579 42.8177 46.5579 42.0156V41.7031C46.5579 40.8646 46.7141 40.1224 47.0266 39.4766C47.3391 38.8255 47.7792 38.3151 48.3469 37.9453C48.9199 37.5703 49.5943 37.3854 50.3704 37.3906C51.511 37.3906 52.3834 37.7266 52.9876 38.3984C53.5917 39.0651 53.8938 40.0026 53.8938 41.2109V42.4531H48.9251L48.9094 42.5C48.9511 43.0573 49.136 43.5156 49.4641 43.875C49.7922 44.2344 50.2584 44.4141 50.8626 44.4141C51.2792 44.4141 51.6672 44.362 52.0266 44.2578C52.3912 44.1484 52.7454 43.9896 53.0891 43.7812L53.7063 45.1875C53.3574 45.4688 52.9172 45.7031 52.386 45.8906C51.86 46.0729 51.2558 46.1641 50.5735 46.1641ZM48.9407 40.9453H51.761V40.7422C51.761 40.2318 51.6542 39.8281 51.4407 39.5312C51.2324 39.2292 50.8886 39.0781 50.4094 39.0781C49.9511 39.0781 49.6021 39.2526 49.3626 39.6016C49.123 39.9453 48.9745 40.3802 48.9172 40.9062L48.9407 40.9453ZM54.8484 46V44.6328L55.9421 44.3984V39.1562L54.7312 38.9219V37.5469H58.0671L58.1531 38.5938L58.1687 38.7812C58.5854 37.8542 59.2104 37.3906 60.0437 37.3906C60.1791 37.3906 60.3249 37.401 60.4812 37.4219C60.6426 37.4427 60.7885 37.474 60.9187 37.5156L60.6765 39.6172L59.5437 39.5547C59.2208 39.5391 58.9577 39.5938 58.7546 39.7188C58.5567 39.8438 58.3796 40.0234 58.2234 40.2578V44.3984L59.3171 44.6328V46H54.8484ZM64.9514 46.1641C64.3212 46.1641 63.7326 46.1042 63.1857 45.9844C62.6441 45.8646 62.1232 45.6927 61.6232 45.4688L61.5998 43.0781H63.1857L63.4904 44.2969C63.6675 44.3854 63.8602 44.4557 64.0686 44.5078C64.2821 44.5599 64.5243 44.5859 64.7951 44.5859C65.3055 44.5859 65.6649 44.5026 65.8732 44.3359C66.0816 44.1693 66.1857 43.9609 66.1857 43.7109C66.1857 43.4766 66.0738 43.2708 65.8498 43.0938C65.6259 42.9115 65.1857 42.7526 64.5295 42.6172C63.5243 42.4089 62.7847 42.0859 62.3107 41.6484C61.842 41.2109 61.6076 40.651 61.6076 39.9688C61.6076 39.5052 61.7248 39.0781 61.9592 38.6875C62.1988 38.2969 62.5607 37.987 63.0451 37.7578C63.5347 37.5234 64.1597 37.4062 64.9201 37.4062C65.5555 37.4062 66.1363 37.4688 66.6623 37.5938C67.1936 37.7135 67.6389 37.8724 67.9982 38.0703L68.0217 40.3828H66.4436L66.2014 39.2734C65.8993 39.0651 65.5191 38.9609 65.0607 38.9609C64.6649 38.9609 64.3576 39.0443 64.1389 39.2109C63.9253 39.3724 63.8186 39.5781 63.8186 39.8281C63.8186 40.0469 63.9123 40.2448 64.0998 40.4219C64.2925 40.5938 64.7118 40.7526 65.3576 40.8984C66.4045 41.138 67.1675 41.4583 67.6467 41.8594C68.1259 42.2552 68.3654 42.8125 68.3654 43.5312C68.3654 44.3177 68.079 44.9531 67.5061 45.4375C66.9384 45.9219 66.0868 46.1641 64.9514 46.1641ZM69.0622 46V44.6328L70.1637 44.3984V39.1562L68.945 38.9219V37.5469H72.445V44.3984L73.5387 44.6328V46H69.0622ZM70.0856 35.7578V33.8125H72.445V35.7578H70.0856ZM78.0636 46.1641C77.2251 46.1641 76.5063 45.9818 75.9074 45.6172C75.3136 45.2526 74.8579 44.7474 74.5402 44.1016C74.2225 43.4505 74.0636 42.7031 74.0636 41.8594V41.6953C74.0636 40.8568 74.2225 40.1146 74.5402 39.4688C74.8579 38.8177 75.3136 38.3099 75.9074 37.9453C76.5063 37.5755 77.2199 37.3906 78.048 37.3906C78.8813 37.3906 79.5949 37.5729 80.1886 37.9375C80.7876 38.3021 81.2459 38.8099 81.5636 39.4609C81.8813 40.1068 82.0402 40.8516 82.0402 41.6953V41.8594C82.0402 42.7031 81.8813 43.4505 81.5636 44.1016C81.2459 44.7474 80.7902 45.2526 80.1964 45.6172C79.6027 45.9818 78.8917 46.1641 78.0636 46.1641ZM78.0636 44.4141C78.6522 44.4141 79.0819 44.1797 79.3527 43.7109C79.6287 43.2422 79.7667 42.625 79.7667 41.8594V41.6953C79.7667 40.9453 79.6287 40.3333 79.3527 39.8594C79.0766 39.3854 78.6417 39.1484 78.048 39.1484C77.4542 39.1484 77.022 39.3854 76.7511 39.8594C76.4803 40.3333 76.3449 40.9453 76.3449 41.6953V41.8594C76.3449 42.6302 76.4803 43.25 76.7511 43.7188C77.022 44.1823 77.4595 44.4141 78.0636 44.4141ZM82.7057 46V44.6328L83.7994 44.3984V39.1562L82.5885 38.9219V37.5469H85.9244L86.026 38.7578C86.3073 38.3255 86.6536 37.9896 87.0651 37.75C87.4817 37.5104 87.9557 37.3906 88.4869 37.3906C89.3203 37.3906 89.9739 37.6589 90.4479 38.1953C90.927 38.7318 91.1666 39.5729 91.1666 40.7188V44.3984L92.2604 44.6328V46H87.901V44.6328L88.8776 44.3984V40.7266C88.8776 40.1589 88.763 39.7578 88.5338 39.5234C88.3099 39.2839 87.9791 39.1641 87.5416 39.1641C86.9062 39.1641 86.4192 39.4297 86.0807 39.9609V44.3984L87.0026 44.6328V46H82.7057ZM11.0099 67V65.6328L12.2364 65.375V57.2656L11.0099 57V55.625H16.0021C17.0177 55.625 17.9135 55.8646 18.6896 56.3438C19.4656 56.8177 20.0698 57.4766 20.5021 58.3203C20.9396 59.1589 21.1583 60.1224 21.1583 61.2109V61.4219C21.1583 62.5 20.9422 63.4609 20.5099 64.3047C20.0828 65.1432 19.4838 65.8021 18.713 66.2812C17.9422 66.7604 17.0489 67 16.0333 67H11.0099ZM14.5177 65.2578H15.9161C16.5463 65.2578 17.0802 65.0938 17.5177 64.7656C17.9604 64.4323 18.2963 63.9766 18.5255 63.3984C18.7547 62.8203 18.8693 62.1615 18.8693 61.4219V61.2031C18.8693 60.4531 18.7547 59.7917 18.5255 59.2188C18.2963 58.6406 17.9604 58.1901 17.5177 57.8672C17.0802 57.5391 16.5463 57.375 15.9161 57.375H14.5177V65.2578ZM24.7613 67.1641C23.9228 67.1641 23.2561 66.9401 22.7613 66.4922C22.2665 66.0391 22.0191 65.4245 22.0191 64.6484C22.0191 63.8568 22.3394 63.2109 22.9801 62.7109C23.6259 62.2109 24.5738 61.9609 25.8238 61.9609H26.941V61.3359C26.941 60.9297 26.8212 60.6016 26.5816 60.3516C26.3473 60.0964 25.9931 59.9688 25.5191 59.9688C25.2743 59.9688 25.053 60 24.8551 60.0625C24.6624 60.1198 24.4879 60.2031 24.3316 60.3125L24.1519 61.4297H22.5113L22.4801 59.2344C22.9228 58.9844 23.4019 58.7812 23.9176 58.625C24.4332 58.4688 25.0087 58.3906 25.6441 58.3906C26.7483 58.3906 27.6207 58.6484 28.2613 59.1641C28.9019 59.6797 29.2223 60.4115 29.2223 61.3594V64.8438C29.2223 64.9583 29.2223 65.0703 29.2223 65.1797C29.2275 65.2891 29.2379 65.3984 29.2535 65.5078L30.1363 65.6328V67H27.3082C27.2509 66.8542 27.1936 66.6979 27.1363 66.5312C27.079 66.3646 27.0374 66.1979 27.0113 66.0312C26.7405 66.375 26.4202 66.651 26.0504 66.8594C25.6858 67.0625 25.2561 67.1641 24.7613 67.1641ZM25.3707 65.4766C25.6884 65.4766 25.9879 65.4062 26.2691 65.2656C26.5556 65.1198 26.7795 64.9297 26.941 64.6953V63.3594H25.816C25.316 63.3594 24.9358 63.474 24.6754 63.7031C24.4202 63.9323 24.2926 64.2083 24.2926 64.5312C24.2926 64.8333 24.3863 65.0677 24.5738 65.2344C24.7665 65.3958 25.0321 65.4766 25.3707 65.4766ZM34.3018 67.1641C33.6716 67.1641 33.0831 67.1042 32.5362 66.9844C31.9945 66.8646 31.4737 66.6927 30.9737 66.4688L30.9503 64.0781H32.5362L32.8409 65.2969C33.018 65.3854 33.2107 65.4557 33.419 65.5078C33.6325 65.5599 33.8747 65.5859 34.1456 65.5859C34.656 65.5859 35.0154 65.5026 35.2237 65.3359C35.432 65.1693 35.5362 64.9609 35.5362 64.7109C35.5362 64.4766 35.4242 64.2708 35.2003 64.0938C34.9763 63.9115 34.5362 63.7526 33.8799 63.6172C32.8747 63.4089 32.1351 63.0859 31.6612 62.6484C31.1924 62.2109 30.9581 61.651 30.9581 60.9688C30.9581 60.5052 31.0753 60.0781 31.3096 59.6875C31.5492 59.2969 31.9112 58.987 32.3956 58.7578C32.8851 58.5234 33.5101 58.4062 34.2706 58.4062C34.906 58.4062 35.4867 58.4688 36.0128 58.5938C36.544 58.7135 36.9893 58.8724 37.3487 59.0703L37.3721 61.3828H35.794L35.5518 60.2734C35.2497 60.0651 34.8695 59.9609 34.4112 59.9609C34.0154 59.9609 33.7081 60.0443 33.4893 60.2109C33.2758 60.3724 33.169 60.5781 33.169 60.8281C33.169 61.0469 33.2628 61.2448 33.4503 61.4219C33.643 61.5938 34.0622 61.7526 34.7081 61.8984C35.7549 62.138 36.518 62.4583 36.9971 62.8594C37.4763 63.2552 37.7159 63.8125 37.7159 64.5312C37.7159 65.3177 37.4294 65.9531 36.8565 66.4375C36.2888 66.9219 35.4372 67.1641 34.3018 67.1641ZM38.3579 67V65.6328L39.4595 65.3984V56.4219L38.2408 56.1875V54.8125H41.7329V59.625C41.9986 59.2344 42.3267 58.9323 42.7173 58.7188C43.1131 58.5 43.5611 58.3906 44.0611 58.3906C44.91 58.3906 45.5819 58.6745 46.0767 59.2422C46.5767 59.8047 46.8267 60.6771 46.8267 61.8594V65.3984L47.9204 65.6328V67H43.5611V65.6328L44.5454 65.3984V61.8438C44.5454 61.2344 44.4309 60.8021 44.2017 60.5469C43.9725 60.2917 43.6366 60.1641 43.1939 60.1641C42.5533 60.1641 42.0663 60.4141 41.7329 60.9141V65.3984L42.7173 65.6328V67H38.3579ZM53.3359 67.1641C52.8099 67.1641 52.362 67.0625 51.9922 66.8594C51.6224 66.651 51.3125 66.3516 51.0625 65.9609L50.8984 67H48.9297V56.4219L47.7188 56.1875V54.8125H51.2031V59.4453C51.4479 59.1068 51.7474 58.8464 52.1016 58.6641C52.4609 58.4818 52.8776 58.3906 53.3516 58.3906C54.3776 58.3906 55.1667 58.7969 55.7188 59.6094C56.276 60.4167 56.5547 61.4948 56.5547 62.8438V63.0078C56.5547 64.2682 56.276 65.276 55.7188 66.0312C55.1615 66.7865 54.3672 67.1641 53.3359 67.1641ZM52.6406 65.3906C53.224 65.3906 53.6432 65.1849 53.8984 64.7734C54.1536 64.3568 54.2812 63.7682 54.2812 63.0078V62.8438C54.2812 62.0208 54.151 61.3698 53.8906 60.8906C53.6354 60.4062 53.2266 60.1641 52.6641 60.1641C52.3203 60.1641 52.026 60.2448 51.7812 60.4062C51.5365 60.5677 51.3438 60.7865 51.2031 61.0625V64.5938C51.5208 65.125 52 65.3906 52.6406 65.3906ZM61.4858 67.1641C60.6473 67.1641 59.9285 66.9818 59.3296 66.6172C58.7358 66.2526 58.2801 65.7474 57.9624 65.1016C57.6447 64.4505 57.4858 63.7031 57.4858 62.8594V62.6953C57.4858 61.8568 57.6447 61.1146 57.9624 60.4688C58.2801 59.8177 58.7358 59.3099 59.3296 58.9453C59.9285 58.5755 60.6421 58.3906 61.4702 58.3906C62.3035 58.3906 63.0171 58.5729 63.6108 58.9375C64.2098 59.3021 64.6681 59.8099 64.9858 60.4609C65.3035 61.1068 65.4624 61.8516 65.4624 62.6953V62.8594C65.4624 63.7031 65.3035 64.4505 64.9858 65.1016C64.6681 65.7474 64.2124 66.2526 63.6186 66.6172C63.0249 66.9818 62.3139 67.1641 61.4858 67.1641ZM61.4858 65.4141C62.0744 65.4141 62.504 65.1797 62.7749 64.7109C63.0509 64.2422 63.1889 63.625 63.1889 62.8594V62.6953C63.1889 61.9453 63.0509 61.3333 62.7749 60.8594C62.4988 60.3854 62.0639 60.1484 61.4702 60.1484C60.8764 60.1484 60.4441 60.3854 60.1733 60.8594C59.9025 61.3333 59.7671 61.9453 59.7671 62.6953V62.8594C59.7671 63.6302 59.9025 64.25 60.1733 64.7188C60.4441 65.1823 60.8816 65.4141 61.4858 65.4141ZM69.0419 67.1641C68.2034 67.1641 67.5367 66.9401 67.0419 66.4922C66.5471 66.0391 66.2998 65.4245 66.2998 64.6484C66.2998 63.8568 66.6201 63.2109 67.2607 62.7109C67.9065 62.2109 68.8544 61.9609 70.1044 61.9609H71.2216V61.3359C71.2216 60.9297 71.1018 60.6016 70.8623 60.3516C70.6279 60.0964 70.2737 59.9688 69.7998 59.9688C69.555 59.9688 69.3336 60 69.1357 60.0625C68.943 60.1198 68.7685 60.2031 68.6123 60.3125L68.4326 61.4297H66.7919L66.7607 59.2344C67.2034 58.9844 67.6826 58.7812 68.1982 58.625C68.7138 58.4688 69.2893 58.3906 69.9248 58.3906C71.0289 58.3906 71.9013 58.6484 72.5419 59.1641C73.1826 59.6797 73.5029 60.4115 73.5029 61.3594V64.8438C73.5029 64.9583 73.5029 65.0703 73.5029 65.1797C73.5081 65.2891 73.5185 65.3984 73.5341 65.5078L74.4169 65.6328V67H71.5888C71.5315 66.8542 71.4742 66.6979 71.4169 66.5312C71.3596 66.3646 71.318 66.1979 71.2919 66.0312C71.0211 66.375 70.7008 66.651 70.331 66.8594C69.9664 67.0625 69.5367 67.1641 69.0419 67.1641ZM69.6513 65.4766C69.969 65.4766 70.2685 65.4062 70.5498 65.2656C70.8362 65.1198 71.0602 64.9297 71.2216 64.6953V63.3594H70.0966C69.5966 63.3594 69.2164 63.474 68.956 63.7031C68.7008 63.9323 68.5732 64.2083 68.5732 64.5312C68.5732 64.8333 68.6669 65.0677 68.8544 65.2344C69.0471 65.3958 69.3128 65.4766 69.6513 65.4766ZM75.1293 67V65.6328L76.2231 65.3984V60.1562L75.0121 59.9219V58.5469H78.3481L78.434 59.5938L78.4496 59.7812C78.8663 58.8542 79.4913 58.3906 80.3246 58.3906C80.46 58.3906 80.6059 58.401 80.7621 58.4219C80.9236 58.4427 81.0694 58.474 81.1996 58.5156L80.9574 60.6172L79.8246 60.5547C79.5017 60.5391 79.2387 60.5938 79.0356 60.7188C78.8377 60.8438 78.6606 61.0234 78.5043 61.2578V65.3984L79.5981 65.6328V67H75.1293ZM84.7011 67.1641C84.0292 67.1641 83.4511 66.9922 82.9667 66.6484C82.4875 66.2995 82.1203 65.8151 81.8651 65.1953C81.6099 64.5703 81.4823 63.8411 81.4823 63.0078V62.8438C81.4823 61.9531 81.6099 61.1745 81.8651 60.5078C82.1255 59.8411 82.4953 59.3229 82.9745 58.9531C83.4537 58.5781 84.0266 58.3906 84.6933 58.3906C85.162 58.3906 85.5683 58.4844 85.912 58.6719C86.261 58.8542 86.563 59.1146 86.8183 59.4531V56.4219L85.5995 56.1875V54.8125H89.0995V65.3984L90.1933 65.6328V67H87.1229L86.9511 65.9688C86.6854 66.3594 86.3677 66.6562 85.9979 66.8594C85.6281 67.0625 85.1959 67.1641 84.7011 67.1641ZM85.3808 65.3906C86.011 65.3906 86.4901 65.1276 86.8183 64.6016V61.0156C86.4901 60.4479 86.0162 60.1641 85.3964 60.1641C84.8235 60.1641 84.4068 60.4115 84.1464 60.9062C83.8912 61.401 83.7636 62.0469 83.7636 62.8438V63.0078C83.7636 63.7474 83.8886 64.3307 84.1386 64.7578C84.3886 65.1797 84.8026 65.3906 85.3808 65.3906Z" fill="white"/>
</g>
<defs>
<filter id="filter0_d_831_6" x="4.88806" y="33.8125" width="91.3723" height="41.3516" filterUnits="userSpaceOnUse" color-interpolation-filters="sRGB">
<feFlood flood-opacity="0" result="BackgroundImageFix"/>
<feColorMatrix in="SourceAlpha" type="matrix" values="0 0 0 0 0 0 0 0 0 0 0 0 0 0 0 0 0 0 127 0" result="hardAlpha"/>
<feOffset dy="4"/>
<feGaussianBlur stdDeviation="2"/>
<feComposite in2="hardAlpha" operator="out"/>
<feColorMatrix type="matrix" values="0 0 0 0 0 0 0 0 0 0 0 0 0 0 0 0 0 0 0.25 0"/>
<feBlend mode="normal" in2="BackgroundImageFix" result="effect1_dropShadow_831_6"/>
<feBlend mode="normal" in="SourceGraphic" in2="effect1_dropShadow_831_6" result="shape"/>
</filter>
</defs>
</svg>
